<svg xmlns="http://www.w3.org/2000/svg" xmlns:xlink="http://www.w3.org/1999/xlink" xmlns:lucid="lucid" width="1404" height="1872"><g transform="translate(0 0)" lucid:page-tab-id="0_0"><path d="M0 0h1404v1872H0z" fill="#fff"/><path d="M112 1726c0-3.3 2.7-6 6-6h236c3.3 0 6 2.7 6 6v128.67c0 3.3-2.7 6-6 6H118c-3.3 0-6-2.7-6-6z" stroke="#000" stroke-opacity="0" stroke-width="3" fill="#fff" fill-opacity="0"/><use xlink:href="#a" transform="matrix(1,0,0,1,117,1725) translate(0 12.444444444444443)"/><use xlink:href="#b" transform="matrix(1,0,0,1,117,1725) translate(0 31.111111111111107)"/><use xlink:href="#c" transform="matrix(1,0,0,1,117,1725) translate(14.086419753086417 31.111111111111107)"/><use xlink:href="#d" transform="matrix(1,0,0,1,117,1725) translate(27.481481481481477 31.111111111111107)"/><use xlink:href="#e" transform="matrix(1,0,0,1,117,1725) translate(0 49.77777777777777)"/><use xlink:href="#c" transform="matrix(1,0,0,1,117,1725) translate(14.691358024691354 49.77777777777777)"/><use xlink:href="#f" transform="matrix(1,0,0,1,117,1725) translate(28.086419753086414 49.77777777777777)"/><use xlink:href="#g" transform="matrix(1,0,0,1,117,1725) translate(64.33950617283949 49.77777777777777)"/><use xlink:href="#h" transform="matrix(1,0,0,1,117,1725) translate(0 68.44444444444443)"/><use xlink:href="#c" transform="matrix(1,0,0,1,117,1725) translate(13.39506172839506 68.44444444444443)"/><use xlink:href="#f" transform="matrix(1,0,0,1,117,1725) translate(26.79012345679012 68.44444444444443)"/><use xlink:href="#i" transform="matrix(1,0,0,1,117,1725) translate(63.043209876543195 68.44444444444443)"/><use xlink:href="#j" transform="matrix(1,0,0,1,117,1725) translate(127.72839506172838 68.44444444444443)"/><use xlink:href="#k" transform="matrix(1,0,0,1,117,1725) translate(157.06790123456787 68.44444444444443)"/><use xlink:href="#l" transform="matrix(1,0,0,1,117,1725) translate(0 87.1111111111111)"/><use xlink:href="#c" transform="matrix(1,0,0,1,117,1725) translate(13.39506172839506 87.1111111111111)"/><use xlink:href="#f" transform="matrix(1,0,0,1,117,1725) translate(26.79012345679012 87.1111111111111)"/><use xlink:href="#m" transform="matrix(1,0,0,1,117,1725) translate(63.043209876543195 87.1111111111111)"/><use xlink:href="#n" transform="matrix(1,0,0,1,117,1725) translate(140.77777777777774 87.1111111111111)"/><use xlink:href="#o" transform="matrix(1,0,0,1,117,1725) translate(157.15432098765427 87.1111111111111)"/><use xlink:href="#p" transform="matrix(1,0,0,1,117,1725) translate(206.3271604938271 87.1111111111111)"/><use xlink:href="#q" transform="matrix(1,0,0,1,117,1725) translate(0 105.77777777777776)"/><use xlink:href="#r" transform="matrix(1,0,0,1,117,1725) translate(25.92592592592592 105.77777777777776)"/><use xlink:href="#s" transform="matrix(1,0,0,1,117,1725) translate(62.179012345679 105.77777777777776)"/><path d="M392 1726c0-3.3 2.7-6 6-6h328c3.3 0 6 2.7 6 6v110c0 3.3-2.7 6-6 6H398c-3.3 0-6-2.7-6-6z" stroke="#000" stroke-opacity="0" stroke-width="3" fill="#fff" fill-opacity="0"/><g><use xlink:href="#t" transform="matrix(1,0,0,1,397,1725) translate(0 12.444444444444443)"/><use xlink:href="#u" transform="matrix(1,0,0,1,397,1725) translate(0 31.111111111111107)"/><use xlink:href="#v" transform="matrix(1,0,0,1,397,1725) translate(38.80246913580246 31.111111111111107)"/><use xlink:href="#w" transform="matrix(1,0,0,1,397,1725) translate(88.92592592592591 31.111111111111107)"/><use xlink:href="#x" transform="matrix(1,0,0,1,397,1725) translate(120.81481481481478 31.111111111111107)"/><use xlink:href="#y" transform="matrix(1,0,0,1,397,1725) translate(0 49.77777777777777)"/><use xlink:href="#z" transform="matrix(1,0,0,1,397,1725) translate(51.85185185185185 49.77777777777777)"/><use xlink:href="#A" transform="matrix(1,0,0,1,397,1725) translate(78.59876543209876 49.77777777777777)"/><use xlink:href="#B" transform="matrix(1,0,0,1,397,1725) translate(165.75308641975306 49.77777777777777)"/><use xlink:href="#C" transform="matrix(1,0,0,1,397,1725) translate(216.65432098765427 49.77777777777777)"/><use xlink:href="#D" transform="matrix(1,0,0,1,397,1725) translate(246.90123456790118 49.77777777777777)"/><use xlink:href="#E" transform="matrix(1,0,0,1,397,1725) translate(276.2839506172839 49.77777777777777)"/><use xlink:href="#F" transform="matrix(1,0,0,1,397,1725) translate(0 68.44444444444443)"/><use xlink:href="#G" transform="matrix(1,0,0,1,397,1725) translate(21.604938271604933 68.44444444444443)"/><use xlink:href="#H" transform="matrix(1,0,0,1,397,1725) translate(96.7469135802469 68.44444444444443)"/><use xlink:href="#I" transform="matrix(1,0,0,1,397,1725) translate(114.85185185185183 68.44444444444443)"/><use xlink:href="#J" transform="matrix(1,0,0,1,397,1725) translate(165.79629629629628 68.44444444444443)"/><use xlink:href="#K" transform="matrix(1,0,0,1,397,1725) translate(201.18518518518516 68.44444444444443)"/><use xlink:href="#L" transform="matrix(1,0,0,1,397,1725) translate(234.88888888888886 68.44444444444443)"/><use xlink:href="#M" transform="matrix(1,0,0,1,397,1725) translate(280.6481481481481 68.44444444444443)"/><use xlink:href="#N" transform="matrix(1,0,0,1,397,1725) translate(0 87.1111111111111)"/><use xlink:href="#F" transform="matrix(1,0,0,1,397,1725) translate(50.08024691358024 87.1111111111111)"/><use xlink:href="#O" transform="matrix(1,0,0,1,397,1725) translate(71.68518518518518 87.1111111111111)"/><use xlink:href="#P" transform="matrix(1,0,0,1,397,1725) translate(92.42592592592591 87.1111111111111)"/><use xlink:href="#Q" transform="matrix(1,0,0,1,397,1725) translate(158.01851851851848 87.1111111111111)"/><use xlink:href="#R" transform="matrix(1,0,0,1,397,1725) translate(188.2654320987654 87.1111111111111)"/><use xlink:href="#O" transform="matrix(1,0,0,1,397,1725) translate(222.74691358024685 87.1111111111111)"/><use xlink:href="#S" transform="matrix(1,0,0,1,397,1725) translate(243.4876543209876 87.1111111111111)"/></g><path d="M772 1726c0-3.3 2.7-6 6-6h228c3.3 0 6 2.7 6 6v110c0 3.3-2.7 6-6 6H778c-3.3 0-6-2.7-6-6z" stroke="#000" stroke-opacity="0" stroke-width="3" fill="#fff" fill-opacity="0"/><g><use xlink:href="#T" transform="matrix(1,0,0,1,777,1725) translate(0 12.444444444444443)"/><use xlink:href="#U" transform="matrix(1,0,0,1,777,1725) translate(0 31.111111111111107)"/><use xlink:href="#V" transform="matrix(1,0,0,1,777,1725) translate(38.80246913580246 31.111111111111107)"/><use xlink:href="#w" transform="matrix(1,0,0,1,777,1725) translate(81.14814814814812 31.111111111111107)"/><use xlink:href="#W" transform="matrix(1,0,0,1,777,1725) translate(113.03703703703701 31.111111111111107)"/><use xlink:href="#X" transform="matrix(1,0,0,1,777,1725) translate(0 49.77777777777777)"/><use xlink:href="#V" transform="matrix(1,0,0,1,777,1725) translate(43.12345679012345 49.77777777777777)"/><use xlink:href="#z" transform="matrix(1,0,0,1,777,1725) translate(85.46913580246911 49.77777777777777)"/><use xlink:href="#B" transform="matrix(1,0,0,1,777,1725) translate(112.21604938271602 49.77777777777777)"/><use xlink:href="#C" transform="matrix(1,0,0,1,777,1725) translate(163.11728395061726 49.77777777777777)"/><use xlink:href="#Y" transform="matrix(1,0,0,1,777,1725) translate(193.36419753086417 49.77777777777777)"/><use xlink:href="#Z" transform="matrix(1,0,0,1,777,1725) translate(0 68.44444444444443)"/><use xlink:href="#aa" transform="matrix(1,0,0,1,777,1725) translate(37.11728395061728 68.44444444444443)"/><use xlink:href="#ab" transform="matrix(1,0,0,1,777,1725) translate(54.40123456790123 68.44444444444443)"/><use xlink:href="#ac" transform="matrix(1,0,0,1,777,1725) translate(132.87037037037032 68.44444444444443)"/><use xlink:href="#ad" transform="matrix(1,0,0,1,777,1725) translate(171.716049382716 68.44444444444443)"/><use xlink:href="#ae" transform="matrix(1,0,0,1,777,1725) translate(0 87.1111111111111)"/><use xlink:href="#n" transform="matrix(1,0,0,1,777,1725) translate(49.993827160493815 87.1111111111111)"/><use xlink:href="#af" transform="matrix(1,0,0,1,777,1725) translate(66.37037037037035 87.1111111111111)"/></g><path d="M1052 1726c0-3.3 2.7-6 6-6h228c3.3 0 6 2.7 6 6v110c0 3.3-2.7 6-6 6h-228c-3.3 0-6-2.7-6-6z" stroke="#000" stroke-opacity="0" stroke-width="3" fill="#fff" fill-opacity="0"/><g><use xlink:href="#ag" transform="matrix(1,0,0,1,1057,1725) translate(0 12.444444444444443)"/><use xlink:href="#ah" transform="matrix(1,0,0,1,1057,1725) translate(0 31.111111111111107)"/><use xlink:href="#ai" transform="matrix(1,0,0,1,1057,1725) translate(52.54320987654321 31.111111111111107)"/><use xlink:href="#aj" transform="matrix(1,0,0,1,1057,1725) translate(62.00617283950617 31.111111111111107)"/><use xlink:href="#ak" transform="matrix(1,0,0,1,1057,1725) translate(0 49.77777777777777)"/><use xlink:href="#ai" transform="matrix(1,0,0,1,1057,1725) translate(66.49999999999999 49.77777777777777)"/><use xlink:href="#al" transform="matrix(1,0,0,1,1057,1725) translate(75.96296296296295 49.77777777777777)"/><use xlink:href="#am" transform="matrix(1,0,0,1,1057,1725) translate(0 68.44444444444443)"/><use xlink:href="#an" transform="matrix(1,0,0,1,1057,1725) translate(34.56790123456789 68.44444444444443)"/><use xlink:href="#ao" transform="matrix(1,0,0,1,1057,1725) translate(43.209876543209866 68.44444444444443)"/><use xlink:href="#ai" transform="matrix(1,0,0,1,1057,1725) translate(119.12962962962962 68.44444444444443)"/><use xlink:href="#ap" transform="matrix(1,0,0,1,1057,1725) translate(128.59259259259258 68.44444444444443)"/><use xlink:href="#aq" transform="matrix(1,0,0,1,1057,1725) translate(0 87.1111111111111)"/><use xlink:href="#aa" transform="matrix(1,0,0,1,1057,1725) translate(68.22839506172838 87.1111111111111)"/><use xlink:href="#ar" transform="matrix(1,0,0,1,1057,1725) translate(85.51234567901233 87.1111111111111)"/><use xlink:href="#as" transform="matrix(1,0,0,1,1057,1725) translate(153.7407407407407 87.1111111111111)"/><use xlink:href="#ai" transform="matrix(1,0,0,1,1057,1725) translate(186.537037037037 87.1111111111111)"/><use xlink:href="#at" transform="matrix(1,0,0,1,1057,1725) translate(195.99999999999997 87.1111111111111)"/></g><path d="M120 106c0-3.3 2.7-6 6-6h68c3.3 0 6 2.7 6 6v1568.67c0 3.3-2.7 6-6 6h-68c-3.3 0-6-2.7-6-6z" stroke="#000" stroke-opacity="0" stroke-width="3" fill="#fff" fill-opacity="0"/><g><use xlink:href="#au" transform="matrix(1,0,0,1,125,105) translate(0 33.777777777777764)"/><use xlink:href="#av" transform="matrix(1,0,0,1,125,105) translate(0 84.4444444444444)"/><use xlink:href="#aw" transform="matrix(1,0,0,1,125,105) translate(0 135.11111111111106)"/><use xlink:href="#ax" transform="matrix(1,0,0,1,125,105) translate(0 185.77777777777771)"/><use xlink:href="#ay" transform="matrix(1,0,0,1,125,105) translate(0 236.44444444444434)"/><use xlink:href="#az" transform="matrix(1,0,0,1,125,105) translate(0 287.111111111111)"/><use xlink:href="#aA" transform="matrix(1,0,0,1,125,105) translate(0 337.7777777777776)"/><use xlink:href="#aB" transform="matrix(1,0,0,1,125,105) translate(0 388.44444444444423)"/><use xlink:href="#aC" transform="matrix(1,0,0,1,125,105) translate(0 439.11111111111086)"/><use xlink:href="#aD" transform="matrix(1,0,0,1,125,105) translate(0 489.7777777777775)"/><use xlink:href="#aE" transform="matrix(1,0,0,1,125,105) translate(0 540.4444444444441)"/><use xlink:href="#aF" transform="matrix(1,0,0,1,125,105) translate(0 591.1111111111107)"/><use xlink:href="#aG" transform="matrix(1,0,0,1,125,105) translate(0 641.7777777777774)"/><use xlink:href="#aH" transform="matrix(1,0,0,1,125,105) translate(0 692.444444444444)"/><use xlink:href="#aI" transform="matrix(1,0,0,1,125,105) translate(0 743.1111111111106)"/><use xlink:href="#aJ" transform="matrix(1,0,0,1,125,105) translate(0 793.7777777777773)"/><use xlink:href="#aK" transform="matrix(1,0,0,1,125,105) translate(0 844.4444444444439)"/><use xlink:href="#aL" transform="matrix(1,0,0,1,125,105) translate(0 895.1111111111105)"/><use xlink:href="#aM" transform="matrix(1,0,0,1,125,105) translate(0 945.7777777777771)"/><use xlink:href="#aN" transform="matrix(1,0,0,1,125,105) translate(0 996.4444444444438)"/><use xlink:href="#aO" transform="matrix(1,0,0,1,125,105) translate(0 1047.1111111111104)"/><use xlink:href="#aP" transform="matrix(1,0,0,1,125,105) translate(0 1097.7777777777771)"/><use xlink:href="#aQ" transform="matrix(1,0,0,1,125,105) translate(0 1148.444444444444)"/><use xlink:href="#aR" transform="matrix(1,0,0,1,125,105) translate(0 1199.1111111111106)"/><use xlink:href="#aS" transform="matrix(1,0,0,1,125,105) translate(0 1249.7777777777774)"/><use xlink:href="#aT" transform="matrix(1,0,0,1,125,105) translate(0 1300.4444444444441)"/><use xlink:href="#aU" transform="matrix(1,0,0,1,125,105) translate(0 1351.1111111111109)"/><use xlink:href="#aV" transform="matrix(1,0,0,1,125,105) translate(0 1401.7777777777776)"/><use xlink:href="#aW" transform="matrix(1,0,0,1,125,105) translate(0 1452.4444444444443)"/><use xlink:href="#aX" transform="matrix(1,0,0,1,125,105) translate(0 1503.111111111111)"/><use xlink:href="#aY" transform="matrix(1,0,0,1,125,105) translate(0 1553.7777777777778)"/></g><defs><path fill="#333" d="M127-220V0H93v-220H8v-28h204v28h-85" id="aZ"/><path fill="#333" d="M205 0l-28-72H64L36 0H1l101-248h38L239 0h-34zm-38-99l-47-123c-12 45-31 82-46 123h93" id="ba"/><path fill="#333" d="M185-189c-5-48-123-54-124 2 14 75 158 14 163 119 3 78-121 87-175 55-17-10-28-26-33-46l33-7c5 56 141 63 141-1 0-78-155-14-162-118-5-82 145-84 179-34 5 7 8 16 11 25" id="bb"/><path fill="#333" d="M194 0L95-120 63-95V0H30v-248h33v124l119-124h40L117-140 236 0h-42" id="bc"/><g id="a"><use transform="matrix(0.04320987654320987,0,0,0.04320987654320987,0,0)" xlink:href="#aZ"/><use transform="matrix(0.04320987654320987,0,0,0.04320987654320987,8.296296296296294,0)" xlink:href="#ba"/><use transform="matrix(0.04320987654320987,0,0,0.04320987654320987,18.666666666666664,0)" xlink:href="#bb"/><use transform="matrix(0.04320987654320987,0,0,0.04320987654320987,29.03703703703703,0)" xlink:href="#bc"/><use transform="matrix(0.04320987654320987,0,0,0.04320987654320987,39.4074074074074,0)" xlink:href="#bb"/></g><path fill="#333" d="M62-168c30 0 50 19 50 48S92-70 62-70c-29 0-48-21-48-50s20-48 48-48" id="bd"/><use transform="matrix(0.04320987654320987,0,0,0.04320987654320987,0,0)" xlink:href="#bd" id="b"/><path fill="#333" d="M18-150v-26h174v26H18zm0 90v-26h174v26H18" id="be"/><use transform="matrix(0.04320987654320987,0,0,0.04320987654320987,0,0)" xlink:href="#be" id="c"/><path fill="#333" d="M141-36C126-15 110 5 73 4 37 3 15-17 15-53c-1-64 63-63 125-63 3-35-9-54-41-54-24 1-41 7-42 31l-33-3c5-37 33-52 76-52 45 0 72 20 72 64v82c-1 20 7 32 28 27v20c-31 9-61-2-59-35zM48-53c0 20 12 33 32 33 41-3 63-29 60-74-43 2-92-5-92 41" id="bf"/><path fill="#333" d="M135-143c-3-34-86-38-87 0 15 53 115 12 119 90S17 21 10-45l28-5c4 36 97 45 98 0-10-56-113-15-118-90-4-57 82-63 122-42 12 7 21 19 24 35" id="bg"/><path fill="#333" d="M143 0L79-87 56-68V0H24v-261h32v163l83-92h37l-77 82L181 0h-38" id="bh"/><g id="d"><use transform="matrix(0.04320987654320987,0,0,0.04320987654320987,0,0)" xlink:href="#aZ"/><use transform="matrix(0.04320987654320987,0,0,0.04320987654320987,7.734567901234565,0)" xlink:href="#bf"/><use transform="matrix(0.04320987654320987,0,0,0.04320987654320987,16.376543209876537,0)" xlink:href="#bg"/><use transform="matrix(0.04320987654320987,0,0,0.04320987654320987,24.154320987654312,0)" xlink:href="#bh"/></g><path fill="#333" d="M195 0l-74-108L45 0H8l94-129-87-119h37l69 98 67-98h37l-84 118L233 0h-38" id="bi"/><use transform="matrix(0.04320987654320987,0,0,0.04320987654320987,0,0)" xlink:href="#bi" id="e"/><g id="f"><use transform="matrix(0.04320987654320987,0,0,0.04320987654320987,0,0)" xlink:href="#aZ"/><use transform="matrix(0.04320987654320987,0,0,0.04320987654320987,7.734567901234565,0)" xlink:href="#bf"/><use transform="matrix(0.04320987654320987,0,0,0.04320987654320987,16.376543209876537,0)" xlink:href="#bg"/><use transform="matrix(0.04320987654320987,0,0,0.04320987654320987,24.154320987654312,0)" xlink:href="#bh"/></g><path fill="#333" d="M212-179c-10-28-35-45-73-45-59 0-87 40-87 99 0 60 29 101 89 101 43 0 62-24 78-52l27 14C228-24 195 4 139 4 59 4 22-46 18-125c-6-104 99-153 187-111 19 9 31 26 39 46" id="bj"/><path fill="#333" d="M100-194c62-1 85 37 85 99 1 63-27 99-86 99S16-35 15-95c0-66 28-99 85-99zM99-20c44 1 53-31 53-75 0-43-8-75-51-75s-53 32-53 75 10 74 51 75" id="bk"/><path fill="#333" d="M210-169c-67 3-38 105-44 169h-31v-121c0-29-5-50-35-48C34-165 62-65 56 0H25l-1-190h30c1 10-1 24 2 32 10-44 99-50 107 0 11-21 27-35 58-36 85-2 47 119 55 194h-31v-121c0-29-5-49-35-48" id="bl"/><path fill="#333" d="M115-194c55 1 70 41 70 98S169 2 115 4C84 4 66-9 55-30l1 105H24l-1-265h31l2 30c10-21 28-34 59-34zm-8 174c40 0 45-34 45-75s-6-73-45-74c-42 0-51 32-51 76 0 43 10 73 51 73" id="bm"/><path fill="#333" d="M24 0v-261h32V0H24" id="bn"/><path fill="#333" d="M100-194c63 0 86 42 84 106H49c0 40 14 67 53 68 26 1 43-12 49-29l28 8c-11 28-37 45-77 45C44 4 14-33 15-96c1-61 26-98 85-98zm52 81c6-60-76-77-97-28-3 7-6 17-6 28h103" id="bo"/><path fill="#333" d="M59-47c-2 24 18 29 38 22v24C64 9 27 4 27-40v-127H5v-23h24l9-43h21v43h35v23H59v120" id="bp"/><g id="g"><use transform="matrix(0.04320987654320987,0,0,0.04320987654320987,0,0)" xlink:href="#bj"/><use transform="matrix(0.04320987654320987,0,0,0.04320987654320987,11.191358024691356,0)" xlink:href="#bk"/><use transform="matrix(0.04320987654320987,0,0,0.04320987654320987,19.83333333333333,0)" xlink:href="#bl"/><use transform="matrix(0.04320987654320987,0,0,0.04320987654320987,32.753086419753075,0)" xlink:href="#bm"/><use transform="matrix(0.04320987654320987,0,0,0.04320987654320987,41.39506172839505,0)" xlink:href="#bn"/><use transform="matrix(0.04320987654320987,0,0,0.04320987654320987,44.80864197530863,0)" xlink:href="#bo"/><use transform="matrix(0.04320987654320987,0,0,0.04320987654320987,53.450617283950606,0)" xlink:href="#bp"/><use transform="matrix(0.04320987654320987,0,0,0.04320987654320987,57.771604938271594,0)" xlink:href="#bo"/></g><path fill="#333" d="M18-27v-27l151-64-151-65v-27l175 74v36" id="bq"/><use transform="matrix(0.04320987654320987,0,0,0.04320987654320987,0,0)" xlink:href="#bq" id="h"/><path fill="#333" d="M240 0l2-218c-23 76-54 145-80 218h-23L58-218 59 0H30v-248h44l77 211c21-75 51-140 76-211h43V0h-30" id="br"/><path fill="#333" d="M24-231v-30h32v30H24zM24 0v-190h32V0H24" id="bs"/><path fill="#333" d="M177-190C167-65 218 103 67 71c-23-6-38-20-44-43l32-5c15 47 100 32 89-28v-30C133-14 115 1 83 1 29 1 15-40 15-95c0-56 16-97 71-98 29-1 48 16 59 35 1-10 0-23 2-32h30zM94-22c36 0 50-32 50-73 0-42-14-75-50-75-39 0-46 34-46 75s6 73 46 73" id="bt"/><path fill="#333" d="M114-163C36-179 61-72 57 0H25l-1-190h30c1 12-1 29 2 39 6-27 23-49 58-41v29" id="bu"/><path fill="#333" d="M85-194c31 0 48 13 60 33l-1-100h32l1 261h-30c-2-10 0-23-3-31C134-8 116 4 85 4 32 4 16-35 15-94c0-66 23-100 70-100zm9 24c-40 0-46 34-46 75 0 40 6 74 45 74 42 0 51-32 51-76 0-42-9-74-50-73" id="bv"/><g id="i"><use transform="matrix(0.04320987654320987,0,0,0.04320987654320987,0,0)" xlink:href="#br"/><use transform="matrix(0.04320987654320987,0,0,0.04320987654320987,12.91975308641975,0)" xlink:href="#bs"/><use transform="matrix(0.04320987654320987,0,0,0.04320987654320987,16.33333333333333,0)" xlink:href="#bt"/><use transform="matrix(0.04320987654320987,0,0,0.04320987654320987,24.975308641975303,0)" xlink:href="#bu"/><use transform="matrix(0.04320987654320987,0,0,0.04320987654320987,30.117283950617278,0)" xlink:href="#bf"/><use transform="matrix(0.04320987654320987,0,0,0.04320987654320987,38.75925925925925,0)" xlink:href="#bp"/><use transform="matrix(0.04320987654320987,0,0,0.04320987654320987,43.08024691358024,0)" xlink:href="#bo"/><use transform="matrix(0.04320987654320987,0,0,0.04320987654320987,51.722222222222214,0)" xlink:href="#bv"/></g><path fill="#333" d="M117-194c89-4 53 116 60 194h-32v-121c0-31-8-49-39-48C34-167 62-67 57 0H25l-1-190h30c1 10-1 24 2 32 11-22 29-35 61-36" id="bw"/><g id="j"><use transform="matrix(0.04320987654320987,0,0,0.04320987654320987,0,0)" xlink:href="#bs"/><use transform="matrix(0.04320987654320987,0,0,0.04320987654320987,3.4135802469135794,0)" xlink:href="#bw"/><use transform="matrix(0.04320987654320987,0,0,0.04320987654320987,12.055555555555554,0)" xlink:href="#bp"/><use transform="matrix(0.04320987654320987,0,0,0.04320987654320987,16.376543209876537,0)" xlink:href="#bk"/></g><path fill="#333" d="M96-169c-40 0-48 33-48 73s9 75 48 75c24 0 41-14 43-38l32 2c-6 37-31 61-74 61-59 0-76-41-82-99-10-93 101-131 147-64 4 7 5 14 7 22l-32 3c-4-21-16-35-41-35" id="bx"/><g id="k"><use transform="matrix(0.04320987654320987,0,0,0.04320987654320987,0,0)" xlink:href="#bj"/><use transform="matrix(0.04320987654320987,0,0,0.04320987654320987,11.191358024691356,0)" xlink:href="#bk"/><use transform="matrix(0.04320987654320987,0,0,0.04320987654320987,19.83333333333333,0)" xlink:href="#bn"/><use transform="matrix(0.04320987654320987,0,0,0.04320987654320987,23.246913580246908,0)" xlink:href="#bn"/><use transform="matrix(0.04320987654320987,0,0,0.04320987654320987,26.660493827160487,0)" xlink:href="#bo"/><use transform="matrix(0.04320987654320987,0,0,0.04320987654320987,35.30246913580246,0)" xlink:href="#bx"/><use transform="matrix(0.04320987654320987,0,0,0.04320987654320987,43.08024691358024,0)" xlink:href="#bp"/><use transform="matrix(0.04320987654320987,0,0,0.04320987654320987,47.40123456790123,0)" xlink:href="#bs"/><use transform="matrix(0.04320987654320987,0,0,0.04320987654320987,50.81481481481482,0)" xlink:href="#bk"/><use transform="matrix(0.04320987654320987,0,0,0.04320987654320987,59.456790123456784,0)" xlink:href="#bw"/></g><path fill="#333" d="M18-100v-36l175-74v27L42-118l151 64v27" id="by"/><use transform="matrix(0.04320987654320987,0,0,0.04320987654320987,0,0)" xlink:href="#by" id="l"/><path fill="#333" d="M106-169C34-169 62-67 57 0H25v-261h32l-1 103c12-21 28-36 61-36 89 0 53 116 60 194h-32v-121c2-32-8-49-39-48" id="bz"/><path fill="#333" d="M84 4C-5 8 30-112 23-190h32v120c0 31 7 50 39 49 72-2 45-101 50-169h31l1 190h-30c-1-10 1-25-2-33-11 22-28 36-60 37" id="bA"/><g id="m"><use transform="matrix(0.04320987654320987,0,0,0.04320987654320987,0,0)" xlink:href="#bb"/><use transform="matrix(0.04320987654320987,0,0,0.04320987654320987,10.370370370370368,0)" xlink:href="#bx"/><use transform="matrix(0.04320987654320987,0,0,0.04320987654320987,18.148148148148145,0)" xlink:href="#bz"/><use transform="matrix(0.04320987654320987,0,0,0.04320987654320987,26.790123456790116,0)" xlink:href="#bo"/><use transform="matrix(0.04320987654320987,0,0,0.04320987654320987,35.432098765432094,0)" xlink:href="#bv"/><use transform="matrix(0.04320987654320987,0,0,0.04320987654320987,44.07407407407407,0)" xlink:href="#bA"/><use transform="matrix(0.04320987654320987,0,0,0.04320987654320987,52.71604938271605,0)" xlink:href="#bn"/><use transform="matrix(0.04320987654320987,0,0,0.04320987654320987,56.129629629629626,0)" xlink:href="#bo"/><use transform="matrix(0.04320987654320987,0,0,0.04320987654320987,64.7716049382716,0)" xlink:href="#bv"/></g><g id="n"><use transform="matrix(0.04320987654320987,0,0,0.04320987654320987,0,0)" xlink:href="#bs"/><use transform="matrix(0.04320987654320987,0,0,0.04320987654320987,3.4135802469135794,0)" xlink:href="#bw"/></g><path fill="#333" d="M63-220v92h138v28H63V0H30v-248h175v28H63" id="bB"/><g id="o"><use transform="matrix(0.04320987654320987,0,0,0.04320987654320987,0,0)" xlink:href="#bB"/><use transform="matrix(0.04320987654320987,0,0,0.04320987654320987,9.46296296296296,0)" xlink:href="#bA"/><use transform="matrix(0.04320987654320987,0,0,0.04320987654320987,18.104938271604933,0)" xlink:href="#bp"/><use transform="matrix(0.04320987654320987,0,0,0.04320987654320987,22.42592592592592,0)" xlink:href="#bA"/><use transform="matrix(0.04320987654320987,0,0,0.04320987654320987,31.06790123456789,0)" xlink:href="#bu"/><use transform="matrix(0.04320987654320987,0,0,0.04320987654320987,36.209876543209866,0)" xlink:href="#bo"/></g><path fill="#333" d="M30 0v-248h33v221h125V0H30" id="bC"/><g id="p"><use transform="matrix(0.04320987654320987,0,0,0.04320987654320987,0,0)" xlink:href="#bC"/><use transform="matrix(0.04320987654320987,0,0,0.04320987654320987,8.641975308641973,0)" xlink:href="#bk"/><use transform="matrix(0.04320987654320987,0,0,0.04320987654320987,17.283950617283946,0)" xlink:href="#bt"/></g><path fill="#333" d="M-.78-4.98H26.7v1.14H-.78z" id="q"/><g id="r"><use transform="matrix(0.04320987654320987,0,0,0.04320987654320987,0,0)" xlink:href="#aZ"/><use transform="matrix(0.04320987654320987,0,0,0.04320987654320987,7.734567901234565,0)" xlink:href="#bf"/><use transform="matrix(0.04320987654320987,0,0,0.04320987654320987,16.376543209876537,0)" xlink:href="#bg"/><use transform="matrix(0.04320987654320987,0,0,0.04320987654320987,24.154320987654312,0)" xlink:href="#bh"/><path fill="#333" d="M-.78-4.98h37.8v1.14H-.77z"/></g><path fill="#333" d="M33 0v-248h34V0H33" id="bD"/><path fill="#333" d="M108 0H70L1-190h34L89-25l56-165h34" id="bE"/><g id="s"><use transform="matrix(0.04320987654320987,0,0,0.04320987654320987,0,0)" xlink:href="#bD"/><use transform="matrix(0.04320987654320987,0,0,0.04320987654320987,4.320987654320986,0)" xlink:href="#bu"/><use transform="matrix(0.04320987654320987,0,0,0.04320987654320987,9.462962962962962,0)" xlink:href="#bu"/><use transform="matrix(0.04320987654320987,0,0,0.04320987654320987,14.604938271604938,0)" xlink:href="#bo"/><use transform="matrix(0.04320987654320987,0,0,0.04320987654320987,23.246913580246915,0)" xlink:href="#bn"/><use transform="matrix(0.04320987654320987,0,0,0.04320987654320987,26.660493827160487,0)" xlink:href="#bo"/><use transform="matrix(0.04320987654320987,0,0,0.04320987654320987,35.30246913580246,0)" xlink:href="#bE"/><use transform="matrix(0.04320987654320987,0,0,0.04320987654320987,43.08024691358024,0)" xlink:href="#bf"/><use transform="matrix(0.04320987654320987,0,0,0.04320987654320987,51.722222222222214,0)" xlink:href="#bw"/><use transform="matrix(0.04320987654320987,0,0,0.04320987654320987,60.36419753086418,0)" xlink:href="#bp"/><path fill="#333" d="M-.78-4.98h66.24v1.14H-.78z"/></g><path fill="#333" d="M30 0v-248h187v28H63v79h144v27H63v87h162V0H30" id="bF"/><path fill="#333" d="M137 0h-34L2-248h35l83 218 83-218h36" id="bG"/><path fill="#333" d="M190 0L58-211 59 0H30v-248h39L202-35l-2-213h31V0h-41" id="bH"/><g id="t"><use transform="matrix(0.04320987654320987,0,0,0.04320987654320987,0,0)" xlink:href="#bF"/><use transform="matrix(0.04320987654320987,0,0,0.04320987654320987,10.370370370370368,0)" xlink:href="#bG"/><use transform="matrix(0.04320987654320987,0,0,0.04320987654320987,20.740740740740737,0)" xlink:href="#bF"/><use transform="matrix(0.04320987654320987,0,0,0.04320987654320987,31.11111111111111,0)" xlink:href="#bH"/><use transform="matrix(0.04320987654320987,0,0,0.04320987654320987,42.30246913580246,0)" xlink:href="#aZ"/><use transform="matrix(0.04320987654320987,0,0,0.04320987654320987,51.76543209876542,0)" xlink:href="#bb"/></g><g id="u"><use transform="matrix(0.04320987654320987,0,0,0.04320987654320987,0,0)" xlink:href="#br"/><use transform="matrix(0.04320987654320987,0,0,0.04320987654320987,12.91975308641975,0)" xlink:href="#bf"/><use transform="matrix(0.04320987654320987,0,0,0.04320987654320987,21.56172839506172,0)" xlink:href="#bu"/><use transform="matrix(0.04320987654320987,0,0,0.04320987654320987,26.70370370370369,0)" xlink:href="#bh"/></g><g id="v"><use transform="matrix(0.04320987654320987,0,0,0.04320987654320987,0,0)" xlink:href="#bo"/><use transform="matrix(0.04320987654320987,0,0,0.04320987654320987,8.641975308641973,0)" xlink:href="#bE"/><use transform="matrix(0.04320987654320987,0,0,0.04320987654320987,16.41975308641975,0)" xlink:href="#bo"/><use transform="matrix(0.04320987654320987,0,0,0.04320987654320987,25.061728395061724,0)" xlink:href="#bw"/><use transform="matrix(0.04320987654320987,0,0,0.04320987654320987,33.703703703703695,0)" xlink:href="#bp"/><use transform="matrix(0.04320987654320987,0,0,0.04320987654320987,38.02469135802468,0)" xlink:href="#bg"/></g><path fill="#333" d="M206 0h-36l-40-164L89 0H53L-1-190h32L70-26l43-164h34l41 164 42-164h31" id="bI"/><g id="w"><use transform="matrix(0.04320987654320987,0,0,0.04320987654320987,0,0)" xlink:href="#bI"/><use transform="matrix(0.04320987654320987,0,0,0.04320987654320987,11.191358024691356,0)" xlink:href="#bs"/><use transform="matrix(0.04320987654320987,0,0,0.04320987654320987,14.604938271604935,0)" xlink:href="#bp"/><use transform="matrix(0.04320987654320987,0,0,0.04320987654320987,18.92592592592592,0)" xlink:href="#bz"/></g><path fill="#333" d="M72-167c-1-32 0-62 13-81h22c-9 13-17 26-17 46h16v35H72zm-59 0c-1-32 1-62 14-81h22c-9 13-17 26-17 46h15v35H13" id="bJ"/><path fill="#333" d="M140-251c81 0 123 46 123 126C263-46 219 4 140 4 59 4 17-45 17-125s42-126 123-126zm0 227c63 0 89-41 89-101s-29-99-89-99c-61 0-89 39-89 99S79-25 140-24" id="bK"/><path fill="#333" d="M107-248c1 32-1 62-14 81H72c8-13 16-27 16-46H73v-35h34zm-58 0c1 32-1 62-14 81H13c8-13 16-27 17-46H14v-35h35" id="bL"/><g id="x"><use transform="matrix(0.04320987654320987,0,0,0.04320987654320987,0,0)" xlink:href="#bJ"/><use transform="matrix(0.04320987654320987,0,0,0.04320987654320987,5.141975308641975,0)" xlink:href="#bK"/><use transform="matrix(0.04320987654320987,0,0,0.04320987654320987,17.240740740740737,0)" xlink:href="#bL"/></g><g id="y"><use transform="matrix(0.04320987654320987,0,0,0.04320987654320987,0,0)" xlink:href="#bF"/><use transform="matrix(0.04320987654320987,0,0,0.04320987654320987,10.370370370370368,0)" xlink:href="#bE"/><use transform="matrix(0.04320987654320987,0,0,0.04320987654320987,18.148148148148145,0)" xlink:href="#bo"/><use transform="matrix(0.04320987654320987,0,0,0.04320987654320987,26.790123456790116,0)" xlink:href="#bw"/><use transform="matrix(0.04320987654320987,0,0,0.04320987654320987,35.432098765432094,0)" xlink:href="#bp"/><use transform="matrix(0.04320987654320987,0,0,0.04320987654320987,39.75308641975308,0)" xlink:href="#bg"/></g><g id="z"><use transform="matrix(0.04320987654320987,0,0,0.04320987654320987,0,0)" xlink:href="#bf"/><use transform="matrix(0.04320987654320987,0,0,0.04320987654320987,8.641975308641973,0)" xlink:href="#bu"/><use transform="matrix(0.04320987654320987,0,0,0.04320987654320987,13.783950617283947,0)" xlink:href="#bo"/></g><path fill="#333" d="M16-82v-28h88v28H16" id="bM"/><g id="A"><use transform="matrix(0.04320987654320987,0,0,0.04320987654320987,0,0)" xlink:href="#bv"/><use transform="matrix(0.04320987654320987,0,0,0.04320987654320987,8.641975308641973,0)" xlink:href="#bf"/><use transform="matrix(0.04320987654320987,0,0,0.04320987654320987,17.283950617283946,0)" xlink:href="#bp"/><use transform="matrix(0.04320987654320987,0,0,0.04320987654320987,21.604938271604933,0)" xlink:href="#bo"/><use transform="matrix(0.04320987654320987,0,0,0.04320987654320987,30.2469135802469,0)" xlink:href="#bM"/><use transform="matrix(0.04320987654320987,0,0,0.04320987654320987,35.38888888888888,0)" xlink:href="#bu"/><use transform="matrix(0.04320987654320987,0,0,0.04320987654320987,40.53086419753085,0)" xlink:href="#bo"/><use transform="matrix(0.04320987654320987,0,0,0.04320987654320987,49.17283950617283,0)" xlink:href="#bn"/><use transform="matrix(0.04320987654320987,0,0,0.04320987654320987,52.58641975308641,0)" xlink:href="#bf"/><use transform="matrix(0.04320987654320987,0,0,0.04320987654320987,61.228395061728385,0)" xlink:href="#bp"/><use transform="matrix(0.04320987654320987,0,0,0.04320987654320987,65.54938271604937,0)" xlink:href="#bo"/><use transform="matrix(0.04320987654320987,0,0,0.04320987654320987,74.19135802469134,0)" xlink:href="#bv"/></g><g id="B"><use transform="matrix(0.04320987654320987,0,0,0.04320987654320987,0,0)" xlink:href="#bo"/><use transform="matrix(0.04320987654320987,0,0,0.04320987654320987,8.641975308641973,0)" xlink:href="#bw"/><use transform="matrix(0.04320987654320987,0,0,0.04320987654320987,17.283950617283946,0)" xlink:href="#bp"/><use transform="matrix(0.04320987654320987,0,0,0.04320987654320987,21.604938271604933,0)" xlink:href="#bu"/><use transform="matrix(0.04320987654320987,0,0,0.04320987654320987,26.746913580246908,0)" xlink:href="#bs"/><use transform="matrix(0.04320987654320987,0,0,0.04320987654320987,30.160493827160487,0)" xlink:href="#bo"/><use transform="matrix(0.04320987654320987,0,0,0.04320987654320987,38.80246913580246,0)" xlink:href="#bg"/></g><g id="C"><use transform="matrix(0.04320987654320987,0,0,0.04320987654320987,0,0)" xlink:href="#bp"/><use transform="matrix(0.04320987654320987,0,0,0.04320987654320987,4.320987654320986,0)" xlink:href="#bz"/><use transform="matrix(0.04320987654320987,0,0,0.04320987654320987,12.962962962962958,0)" xlink:href="#bf"/><use transform="matrix(0.04320987654320987,0,0,0.04320987654320987,21.60493827160493,0)" xlink:href="#bp"/></g><g id="D"><use transform="matrix(0.04320987654320987,0,0,0.04320987654320987,0,0)" xlink:href="#bx"/><use transform="matrix(0.04320987654320987,0,0,0.04320987654320987,7.777777777777776,0)" xlink:href="#bf"/><use transform="matrix(0.04320987654320987,0,0,0.04320987654320987,16.41975308641975,0)" xlink:href="#bw"/></g><g id="E"><use transform="matrix(0.04320987654320987,0,0,0.04320987654320987,0,0)" xlink:href="#bo"/><use transform="matrix(0.04320987654320987,0,0,0.04320987654320987,8.641975308641973,0)" xlink:href="#bs"/><use transform="matrix(0.04320987654320987,0,0,0.04320987654320987,12.055555555555554,0)" xlink:href="#bp"/><use transform="matrix(0.04320987654320987,0,0,0.04320987654320987,16.376543209876537,0)" xlink:href="#bz"/><use transform="matrix(0.04320987654320987,0,0,0.04320987654320987,25.018518518518512,0)" xlink:href="#bo"/><use transform="matrix(0.04320987654320987,0,0,0.04320987654320987,33.66049382716049,0)" xlink:href="#bu"/></g><path fill="#333" d="M115-194c53 0 69 39 70 98 0 66-23 100-70 100C84 3 66-7 56-30L54 0H23l1-261h32v101c10-23 28-34 59-34zm-8 174c40 0 45-34 45-75 0-40-5-75-45-74-42 0-51 32-51 76 0 43 10 73 51 73" id="bN"/><g id="F"><use transform="matrix(0.04320987654320987,0,0,0.04320987654320987,0,0)" xlink:href="#bN"/><use transform="matrix(0.04320987654320987,0,0,0.04320987654320987,8.641975308641973,0)" xlink:href="#bo"/></g><g id="G"><use transform="matrix(0.04320987654320987,0,0,0.04320987654320987,0,0)" xlink:href="#bg"/><use transform="matrix(0.04320987654320987,0,0,0.04320987654320987,7.777777777777776,0)" xlink:href="#bx"/><use transform="matrix(0.04320987654320987,0,0,0.04320987654320987,15.555555555555552,0)" xlink:href="#bz"/><use transform="matrix(0.04320987654320987,0,0,0.04320987654320987,24.197530864197525,0)" xlink:href="#bo"/><use transform="matrix(0.04320987654320987,0,0,0.04320987654320987,32.8395061728395,0)" xlink:href="#bv"/><use transform="matrix(0.04320987654320987,0,0,0.04320987654320987,41.481481481481474,0)" xlink:href="#bA"/><use transform="matrix(0.04320987654320987,0,0,0.04320987654320987,50.12345679012345,0)" xlink:href="#bn"/><use transform="matrix(0.04320987654320987,0,0,0.04320987654320987,53.53703703703704,0)" xlink:href="#bo"/><use transform="matrix(0.04320987654320987,0,0,0.04320987654320987,62.179012345679006,0)" xlink:href="#bv"/></g><g id="H"><use transform="matrix(0.04320987654320987,0,0,0.04320987654320987,0,0)" xlink:href="#bk"/><use transform="matrix(0.04320987654320987,0,0,0.04320987654320987,8.641975308641973,0)" xlink:href="#bu"/></g><g id="I"><use transform="matrix(0.04320987654320987,0,0,0.04320987654320987,0,0)" xlink:href="#bn"/><use transform="matrix(0.04320987654320987,0,0,0.04320987654320987,3.4135802469135794,0)" xlink:href="#bk"/><use transform="matrix(0.04320987654320987,0,0,0.04320987654320987,12.055555555555554,0)" xlink:href="#bt"/><use transform="matrix(0.04320987654320987,0,0,0.04320987654320987,20.697530864197525,0)" xlink:href="#bt"/><use transform="matrix(0.04320987654320987,0,0,0.04320987654320987,29.3395061728395,0)" xlink:href="#bo"/><use transform="matrix(0.04320987654320987,0,0,0.04320987654320987,37.981481481481474,0)" xlink:href="#bv"/></g><path fill="#333" d="M101-234c-31-9-42 10-38 44h38v23H63V0H32v-167H5v-23h27c-7-52 17-82 69-68v24" id="bO"/><g id="J"><use transform="matrix(0.04320987654320987,0,0,0.04320987654320987,0,0)" xlink:href="#bf"/><use transform="matrix(0.04320987654320987,0,0,0.04320987654320987,8.641975308641973,0)" xlink:href="#bO"/><use transform="matrix(0.04320987654320987,0,0,0.04320987654320987,12.962962962962958,0)" xlink:href="#bp"/><use transform="matrix(0.04320987654320987,0,0,0.04320987654320987,17.283950617283946,0)" xlink:href="#bo"/><use transform="matrix(0.04320987654320987,0,0,0.04320987654320987,25.925925925925917,0)" xlink:href="#bu"/></g><path fill="#333" d="M179-190L93 31C79 59 56 82 12 73V49c39 6 53-20 64-50L1-190h34L92-34l54-156h33" id="bP"/><g id="K"><use transform="matrix(0.04320987654320987,0,0,0.04320987654320987,0,0)" xlink:href="#bp"/><use transform="matrix(0.04320987654320987,0,0,0.04320987654320987,4.320987654320986,0)" xlink:href="#bz"/><use transform="matrix(0.04320987654320987,0,0,0.04320987654320987,12.962962962962958,0)" xlink:href="#bo"/><use transform="matrix(0.04320987654320987,0,0,0.04320987654320987,21.60493827160493,0)" xlink:href="#bP"/></g><path fill="#333" d="M33 0v-38h34V0H33" id="bQ"/><g id="L"><use transform="matrix(0.04320987654320987,0,0,0.04320987654320987,0,0)" xlink:href="#bk"/><use transform="matrix(0.04320987654320987,0,0,0.04320987654320987,8.641975308641973,0)" xlink:href="#bx"/><use transform="matrix(0.04320987654320987,0,0,0.04320987654320987,16.41975308641975,0)" xlink:href="#bx"/><use transform="matrix(0.04320987654320987,0,0,0.04320987654320987,24.197530864197525,0)" xlink:href="#bA"/><use transform="matrix(0.04320987654320987,0,0,0.04320987654320987,32.8395061728395,0)" xlink:href="#bu"/><use transform="matrix(0.04320987654320987,0,0,0.04320987654320987,37.11728395061728,0)" xlink:href="#bQ"/></g><g id="M"><use transform="matrix(0.04320987654320987,0,0,0.04320987654320987,0,0)" xlink:href="#aZ"/><use transform="matrix(0.04320987654320987,0,0,0.04320987654320987,9.46296296296296,0)" xlink:href="#bz"/><use transform="matrix(0.04320987654320987,0,0,0.04320987654320987,18.104938271604933,0)" xlink:href="#bo"/><use transform="matrix(0.04320987654320987,0,0,0.04320987654320987,26.746913580246904,0)" xlink:href="#bP"/></g><g id="N"><use transform="matrix(0.04320987654320987,0,0,0.04320987654320987,0,0)" xlink:href="#bg"/><use transform="matrix(0.04320987654320987,0,0,0.04320987654320987,7.777777777777776,0)" xlink:href="#bz"/><use transform="matrix(0.04320987654320987,0,0,0.04320987654320987,16.41975308641975,0)" xlink:href="#bk"/><use transform="matrix(0.04320987654320987,0,0,0.04320987654320987,25.061728395061724,0)" xlink:href="#bA"/><use transform="matrix(0.04320987654320987,0,0,0.04320987654320987,33.703703703703695,0)" xlink:href="#bn"/><use transform="matrix(0.04320987654320987,0,0,0.04320987654320987,37.11728395061728,0)" xlink:href="#bv"/></g><g id="O"><use transform="matrix(0.04320987654320987,0,0,0.04320987654320987,0,0)" xlink:href="#bf"/><use transform="matrix(0.04320987654320987,0,0,0.04320987654320987,8.641975308641973,0)" xlink:href="#bg"/></g><path fill="#333" d="M24-231v-30h32v30H24zM-9 49c24 4 33-6 33-30v-209h32V24c2 40-23 58-65 49V49" id="bR"/><g id="P"><use transform="matrix(0.04320987654320987,0,0,0.04320987654320987,0,0)" xlink:href="#bk"/><use transform="matrix(0.04320987654320987,0,0,0.04320987654320987,8.641975308641973,0)" xlink:href="#bN"/><use transform="matrix(0.04320987654320987,0,0,0.04320987654320987,17.283950617283946,0)" xlink:href="#bR"/><use transform="matrix(0.04320987654320987,0,0,0.04320987654320987,20.697530864197525,0)" xlink:href="#bo"/><use transform="matrix(0.04320987654320987,0,0,0.04320987654320987,29.3395061728395,0)" xlink:href="#bx"/><use transform="matrix(0.04320987654320987,0,0,0.04320987654320987,37.11728395061728,0)" xlink:href="#bp"/><use transform="matrix(0.04320987654320987,0,0,0.04320987654320987,41.438271604938265,0)" xlink:href="#bs"/><use transform="matrix(0.04320987654320987,0,0,0.04320987654320987,44.851851851851855,0)" xlink:href="#bE"/><use transform="matrix(0.04320987654320987,0,0,0.04320987654320987,52.629629629629626,0)" xlink:href="#bo"/></g><g id="Q"><use transform="matrix(0.04320987654320987,0,0,0.04320987654320987,0,0)" xlink:href="#bf"/><use transform="matrix(0.04320987654320987,0,0,0.04320987654320987,8.641975308641973,0)" xlink:href="#bw"/><use transform="matrix(0.04320987654320987,0,0,0.04320987654320987,17.283950617283946,0)" xlink:href="#bv"/></g><g id="R"><use transform="matrix(0.04320987654320987,0,0,0.04320987654320987,0,0)" xlink:href="#bN"/><use transform="matrix(0.04320987654320987,0,0,0.04320987654320987,8.641975308641973,0)" xlink:href="#bu"/><use transform="matrix(0.04320987654320987,0,0,0.04320987654320987,13.783950617283947,0)" xlink:href="#bs"/><use transform="matrix(0.04320987654320987,0,0,0.04320987654320987,17.197530864197528,0)" xlink:href="#bo"/><use transform="matrix(0.04320987654320987,0,0,0.04320987654320987,25.8395061728395,0)" xlink:href="#bO"/></g><g id="S"><use transform="matrix(0.04320987654320987,0,0,0.04320987654320987,0,0)" xlink:href="#bm"/><use transform="matrix(0.04320987654320987,0,0,0.04320987654320987,8.641975308641973,0)" xlink:href="#bk"/><use transform="matrix(0.04320987654320987,0,0,0.04320987654320987,17.283950617283946,0)" xlink:href="#bg"/><use transform="matrix(0.04320987654320987,0,0,0.04320987654320987,25.061728395061724,0)" xlink:href="#bg"/><use transform="matrix(0.04320987654320987,0,0,0.04320987654320987,32.8395061728395,0)" xlink:href="#bs"/><use transform="matrix(0.04320987654320987,0,0,0.04320987654320987,36.25308641975308,0)" xlink:href="#bN"/><use transform="matrix(0.04320987654320987,0,0,0.04320987654320987,44.89506172839505,0)" xlink:href="#bn"/><use transform="matrix(0.04320987654320987,0,0,0.04320987654320987,48.30864197530864,0)" xlink:href="#bo"/><use transform="matrix(0.04320987654320987,0,0,0.04320987654320987,56.95061728395061,0)" xlink:href="#bQ"/></g><g id="T"><use transform="matrix(0.04320987654320987,0,0,0.04320987654320987,0,0)" xlink:href="#bH"/><use transform="matrix(0.04320987654320987,0,0,0.04320987654320987,11.191358024691356,0)" xlink:href="#bK"/><use transform="matrix(0.04320987654320987,0,0,0.04320987654320987,23.29012345679012,0)" xlink:href="#aZ"/><use transform="matrix(0.04320987654320987,0,0,0.04320987654320987,32.75308641975308,0)" xlink:href="#bF"/><use transform="matrix(0.04320987654320987,0,0,0.04320987654320987,43.12345679012345,0)" xlink:href="#bb"/></g><g id="U"><use transform="matrix(0.04320987654320987,0,0,0.04320987654320987,0,0)" xlink:href="#br"/><use transform="matrix(0.04320987654320987,0,0,0.04320987654320987,12.91975308641975,0)" xlink:href="#bf"/><use transform="matrix(0.04320987654320987,0,0,0.04320987654320987,21.56172839506172,0)" xlink:href="#bu"/><use transform="matrix(0.04320987654320987,0,0,0.04320987654320987,26.70370370370369,0)" xlink:href="#bh"/></g><g id="V"><use transform="matrix(0.04320987654320987,0,0,0.04320987654320987,0,0)" xlink:href="#bw"/><use transform="matrix(0.04320987654320987,0,0,0.04320987654320987,8.641975308641973,0)" xlink:href="#bk"/><use transform="matrix(0.04320987654320987,0,0,0.04320987654320987,17.283950617283946,0)" xlink:href="#bp"/><use transform="matrix(0.04320987654320987,0,0,0.04320987654320987,21.604938271604933,0)" xlink:href="#bo"/><use transform="matrix(0.04320987654320987,0,0,0.04320987654320987,30.2469135802469,0)" xlink:href="#bg"/></g><path fill="#333" d="M0-79v-24h200v24H0" id="bS"/><g id="W"><use transform="matrix(0.04320987654320987,0,0,0.04320987654320987,0,0)" xlink:href="#bJ"/><use transform="matrix(0.04320987654320987,0,0,0.04320987654320987,5.141975308641975,0)" xlink:href="#bS"/><use transform="matrix(0.04320987654320987,0,0,0.04320987654320987,13.783950617283947,0)" xlink:href="#bL"/></g><path fill="#333" d="M160-131c35 5 61 23 61 61C221 17 115-2 30 0v-248c76 3 177-17 177 60 0 33-19 50-47 57zm-97-11c50-1 110 9 110-42 0-47-63-36-110-37v79zm0 115c55-2 124 14 124-45 0-56-70-42-124-44v89" id="bT"/><g id="X"><use transform="matrix(0.04320987654320987,0,0,0.04320987654320987,0,0)" xlink:href="#bT"/><use transform="matrix(0.04320987654320987,0,0,0.04320987654320987,10.370370370370368,0)" xlink:href="#bA"/><use transform="matrix(0.04320987654320987,0,0,0.04320987654320987,19.01234567901234,0)" xlink:href="#bn"/><use transform="matrix(0.04320987654320987,0,0,0.04320987654320987,22.42592592592592,0)" xlink:href="#bn"/><use transform="matrix(0.04320987654320987,0,0,0.04320987654320987,25.8395061728395,0)" xlink:href="#bo"/><use transform="matrix(0.04320987654320987,0,0,0.04320987654320987,34.481481481481474,0)" xlink:href="#bp"/></g><g id="Y"><use transform="matrix(0.04320987654320987,0,0,0.04320987654320987,0,0)" xlink:href="#bP"/><use transform="matrix(0.04320987654320987,0,0,0.04320987654320987,7.777777777777776,0)" xlink:href="#bk"/><use transform="matrix(0.04320987654320987,0,0,0.04320987654320987,16.41975308641975,0)" xlink:href="#bA"/></g><g id="Z"><use transform="matrix(0.04320987654320987,0,0,0.04320987654320987,0,0)" xlink:href="#bI"/><use transform="matrix(0.04320987654320987,0,0,0.04320987654320987,11.191358024691356,0)" xlink:href="#bf"/><use transform="matrix(0.04320987654320987,0,0,0.04320987654320987,19.83333333333333,0)" xlink:href="#bw"/><use transform="matrix(0.04320987654320987,0,0,0.04320987654320987,28.475308641975303,0)" xlink:href="#bp"/></g><g id="aa"><use transform="matrix(0.04320987654320987,0,0,0.04320987654320987,0,0)" xlink:href="#bp"/><use transform="matrix(0.04320987654320987,0,0,0.04320987654320987,4.320987654320986,0)" xlink:href="#bk"/></g><g id="ab"><use transform="matrix(0.04320987654320987,0,0,0.04320987654320987,0,0)" xlink:href="#bu"/><use transform="matrix(0.04320987654320987,0,0,0.04320987654320987,5.141975308641975,0)" xlink:href="#bo"/><use transform="matrix(0.04320987654320987,0,0,0.04320987654320987,13.783950617283947,0)" xlink:href="#bl"/><use transform="matrix(0.04320987654320987,0,0,0.04320987654320987,26.70370370370369,0)" xlink:href="#bo"/><use transform="matrix(0.04320987654320987,0,0,0.04320987654320987,35.34567901234567,0)" xlink:href="#bl"/><use transform="matrix(0.04320987654320987,0,0,0.04320987654320987,48.26543209876541,0)" xlink:href="#bN"/><use transform="matrix(0.04320987654320987,0,0,0.04320987654320987,56.9074074074074,0)" xlink:href="#bo"/><use transform="matrix(0.04320987654320987,0,0,0.04320987654320987,65.54938271604937,0)" xlink:href="#bu"/><use transform="matrix(0.04320987654320987,0,0,0.04320987654320987,69.82716049382714,0)" xlink:href="#bQ"/></g><g id="ac"><use transform="matrix(0.04320987654320987,0,0,0.04320987654320987,0,0)" xlink:href="#aZ"/><use transform="matrix(0.04320987654320987,0,0,0.04320987654320987,9.46296296296296,0)" xlink:href="#bz"/><use transform="matrix(0.04320987654320987,0,0,0.04320987654320987,18.104938271604933,0)" xlink:href="#bo"/><use transform="matrix(0.04320987654320987,0,0,0.04320987654320987,26.746913580246904,0)" xlink:href="#bP"/></g><g id="ad"><use transform="matrix(0.04320987654320987,0,0,0.04320987654320987,0,0)" xlink:href="#bf"/><use transform="matrix(0.04320987654320987,0,0,0.04320987654320987,8.641975308641973,0)" xlink:href="#bu"/><use transform="matrix(0.04320987654320987,0,0,0.04320987654320987,13.783950617283947,0)" xlink:href="#bo"/></g><g id="ae"><use transform="matrix(0.04320987654320987,0,0,0.04320987654320987,0,0)" xlink:href="#bI"/><use transform="matrix(0.04320987654320987,0,0,0.04320987654320987,11.191358024691356,0)" xlink:href="#bu"/><use transform="matrix(0.04320987654320987,0,0,0.04320987654320987,16.33333333333333,0)" xlink:href="#bs"/><use transform="matrix(0.04320987654320987,0,0,0.04320987654320987,19.746913580246908,0)" xlink:href="#bp"/><use transform="matrix(0.04320987654320987,0,0,0.04320987654320987,24.067901234567895,0)" xlink:href="#bp"/><use transform="matrix(0.04320987654320987,0,0,0.04320987654320987,28.388888888888882,0)" xlink:href="#bo"/><use transform="matrix(0.04320987654320987,0,0,0.04320987654320987,37.03086419753085,0)" xlink:href="#bw"/></g><g id="af"><use transform="matrix(0.04320987654320987,0,0,0.04320987654320987,0,0)" xlink:href="#bg"/><use transform="matrix(0.04320987654320987,0,0,0.04320987654320987,7.777777777777776,0)" xlink:href="#bz"/><use transform="matrix(0.04320987654320987,0,0,0.04320987654320987,16.41975308641975,0)" xlink:href="#bk"/><use transform="matrix(0.04320987654320987,0,0,0.04320987654320987,25.061728395061724,0)" xlink:href="#bu"/><use transform="matrix(0.04320987654320987,0,0,0.04320987654320987,30.2037037037037,0)" xlink:href="#bp"/><use transform="matrix(0.04320987654320987,0,0,0.04320987654320987,34.52469135802468,0)" xlink:href="#bz"/><use transform="matrix(0.04320987654320987,0,0,0.04320987654320987,43.16666666666666,0)" xlink:href="#bf"/><use transform="matrix(0.04320987654320987,0,0,0.04320987654320987,51.80864197530863,0)" xlink:href="#bw"/><use transform="matrix(0.04320987654320987,0,0,0.04320987654320987,60.450617283950606,0)" xlink:href="#bv"/><use transform="matrix(0.04320987654320987,0,0,0.04320987654320987,69.09259259259258,0)" xlink:href="#bQ"/></g><path fill="#333" d="M143 4C61 4 22-44 18-125c-5-107 100-154 193-111 17 8 29 25 37 43l-32 9c-13-25-37-40-76-40-61 0-88 39-88 99 0 61 29 100 91 101 35 0 62-11 79-27v-45h-74v-28h105v86C228-13 192 4 143 4" id="bU"/><path fill="#333" d="M233-177c-1 41-23 64-60 70L243 0h-38l-65-103H63V0H30v-248c88 3 205-21 203 71zM63-129c60-2 137 13 137-47 0-61-80-42-137-45v92" id="bV"/><g id="ag"><use transform="matrix(0.04320987654320987,0,0,0.04320987654320987,0,0)" xlink:href="#bb"/><use transform="matrix(0.04320987654320987,0,0,0.04320987654320987,10.370370370370368,0)" xlink:href="#bD"/><use transform="matrix(0.04320987654320987,0,0,0.04320987654320987,14.691358024691354,0)" xlink:href="#bU"/><use transform="matrix(0.04320987654320987,0,0,0.04320987654320987,26.790123456790116,0)" xlink:href="#bH"/><use transform="matrix(0.04320987654320987,0,0,0.04320987654320987,37.981481481481474,0)" xlink:href="#bD"/><use transform="matrix(0.04320987654320987,0,0,0.04320987654320987,42.30246913580246,0)" xlink:href="#bB"/><use transform="matrix(0.04320987654320987,0,0,0.04320987654320987,51.76543209876542,0)" xlink:href="#bD"/><use transform="matrix(0.04320987654320987,0,0,0.04320987654320987,56.08641975308641,0)" xlink:href="#bF"/><use transform="matrix(0.04320987654320987,0,0,0.04320987654320987,66.45679012345678,0)" xlink:href="#bV"/><use transform="matrix(0.04320987654320987,0,0,0.04320987654320987,77.64814814814814,0)" xlink:href="#bb"/></g><path fill="#333" d="M30-248c87 1 191-15 191 75 0 78-77 80-158 76V0H30v-248zm33 125c57 0 124 11 124-50 0-59-68-47-124-48v98" id="bW"/><g id="ah"><use transform="matrix(0.04320987654320987,0,0,0.04320987654320987,0,0)" xlink:href="#bW"/><use transform="matrix(0.04320987654320987,0,0,0.04320987654320987,10.370370370370368,0)" xlink:href="#bu"/><use transform="matrix(0.04320987654320987,0,0,0.04320987654320987,15.512345679012343,0)" xlink:href="#bs"/><use transform="matrix(0.04320987654320987,0,0,0.04320987654320987,18.925925925925924,0)" xlink:href="#bk"/><use transform="matrix(0.04320987654320987,0,0,0.04320987654320987,27.5679012345679,0)" xlink:href="#bu"/><use transform="matrix(0.04320987654320987,0,0,0.04320987654320987,32.70987654320987,0)" xlink:href="#bs"/><use transform="matrix(0.04320987654320987,0,0,0.04320987654320987,36.123456790123456,0)" xlink:href="#bp"/><use transform="matrix(0.04320987654320987,0,0,0.04320987654320987,40.44444444444444,0)" xlink:href="#bP"/></g><use transform="matrix(0.04320987654320987,0,0,0.04320987654320987,0,0)" xlink:href="#bM" id="ai"/><path fill="#333" d="M63-70H37l-4-178h34zM33 0v-35h34V0H33" id="bX"/><use transform="matrix(0.04320987654320987,0,0,0.04320987654320987,0,0)" xlink:href="#bX" id="aj"/><path fill="#333" d="M140-251c81 0 123 46 123 126C263-53 228-8 163 1c7 30 30 48 69 40v23c-55 16-95-15-103-61C56-3 17-48 17-125c0-80 42-126 123-126zm0 227c63 0 89-41 89-101s-29-99-89-99c-61 0-89 39-89 99S79-25 140-24" id="bY"/><g id="ak"><use transform="matrix(0.04320987654320987,0,0,0.04320987654320987,0,0)" xlink:href="#bY"/><use transform="matrix(0.04320987654320987,0,0,0.04320987654320987,12.098765432098762,0)" xlink:href="#bA"/><use transform="matrix(0.04320987654320987,0,0,0.04320987654320987,20.740740740740733,0)" xlink:href="#bo"/><use transform="matrix(0.04320987654320987,0,0,0.04320987654320987,29.382716049382708,0)" xlink:href="#bg"/><use transform="matrix(0.04320987654320987,0,0,0.04320987654320987,37.16049382716049,0)" xlink:href="#bp"/><use transform="matrix(0.04320987654320987,0,0,0.04320987654320987,41.481481481481474,0)" xlink:href="#bs"/><use transform="matrix(0.04320987654320987,0,0,0.04320987654320987,44.89506172839505,0)" xlink:href="#bk"/><use transform="matrix(0.04320987654320987,0,0,0.04320987654320987,53.53703703703704,0)" xlink:href="#bw"/></g><path fill="#333" d="M103-251c84 0 111 97 45 133-19 10-37 24-39 52H78c0-63 77-55 77-114 0-30-21-42-52-43-32 0-53 17-56 46l-32-2c7-45 34-72 88-72zM77 0v-35h34V0H77" id="bZ"/><use transform="matrix(0.04320987654320987,0,0,0.04320987654320987,0,0)" xlink:href="#bZ" id="al"/><g id="am"><use transform="matrix(0.04320987654320987,0,0,0.04320987654320987,0,0)" xlink:href="#bD"/><use transform="matrix(0.04320987654320987,0,0,0.04320987654320987,4.320987654320986,0)" xlink:href="#bv"/><use transform="matrix(0.04320987654320987,0,0,0.04320987654320987,12.962962962962958,0)" xlink:href="#bo"/><use transform="matrix(0.04320987654320987,0,0,0.04320987654320987,21.60493827160493,0)" xlink:href="#bf"/></g><path fill="#333" d="M0 4l72-265h28L28 4H0" id="ca"/><use transform="matrix(0.04320987654320987,0,0,0.04320987654320987,0,0)" xlink:href="#ca" id="an"/><g id="ao"><use transform="matrix(0.04320987654320987,0,0,0.04320987654320987,0,0)" xlink:href="#bD"/><use transform="matrix(0.04320987654320987,0,0,0.04320987654320987,4.320987654320986,0)" xlink:href="#bw"/><use transform="matrix(0.04320987654320987,0,0,0.04320987654320987,12.962962962962958,0)" xlink:href="#bg"/><use transform="matrix(0.04320987654320987,0,0,0.04320987654320987,20.740740740740733,0)" xlink:href="#bm"/><use transform="matrix(0.04320987654320987,0,0,0.04320987654320987,29.382716049382708,0)" xlink:href="#bs"/><use transform="matrix(0.04320987654320987,0,0,0.04320987654320987,32.79629629629629,0)" xlink:href="#bu"/><use transform="matrix(0.04320987654320987,0,0,0.04320987654320987,37.938271604938265,0)" xlink:href="#bf"/><use transform="matrix(0.04320987654320987,0,0,0.04320987654320987,46.58024691358024,0)" xlink:href="#bp"/><use transform="matrix(0.04320987654320987,0,0,0.04320987654320987,50.90123456790123,0)" xlink:href="#bs"/><use transform="matrix(0.04320987654320987,0,0,0.04320987654320987,54.31481481481481,0)" xlink:href="#bk"/><use transform="matrix(0.04320987654320987,0,0,0.04320987654320987,62.956790123456784,0)" xlink:href="#bw"/></g><path fill="#333" d="M80-196l47-18 7 23-49 13 32 44-20 13-27-46-27 45-21-12 33-44-49-13 8-23 47 19-2-53h23" id="cb"/><use transform="matrix(0.04320987654320987,0,0,0.04320987654320987,0,0)" xlink:href="#cb" id="ap"/><g id="aq"><use transform="matrix(0.04320987654320987,0,0,0.04320987654320987,0,0)" xlink:href="#ba"/><use transform="matrix(0.04320987654320987,0,0,0.04320987654320987,10.370370370370368,0)" xlink:href="#bg"/><use transform="matrix(0.04320987654320987,0,0,0.04320987654320987,18.148148148148145,0)" xlink:href="#bg"/><use transform="matrix(0.04320987654320987,0,0,0.04320987654320987,25.92592592592592,0)" xlink:href="#bs"/><use transform="matrix(0.04320987654320987,0,0,0.04320987654320987,29.3395061728395,0)" xlink:href="#bt"/><use transform="matrix(0.04320987654320987,0,0,0.04320987654320987,37.981481481481474,0)" xlink:href="#bw"/><use transform="matrix(0.04320987654320987,0,0,0.04320987654320987,46.62345679012345,0)" xlink:href="#bo"/><use transform="matrix(0.04320987654320987,0,0,0.04320987654320987,55.26543209876542,0)" xlink:href="#bv"/></g><g id="ar"><use transform="matrix(0.04320987654320987,0,0,0.04320987654320987,0,0)" xlink:href="#bg"/><use transform="matrix(0.04320987654320987,0,0,0.04320987654320987,7.777777777777776,0)" xlink:href="#bk"/><use transform="matrix(0.04320987654320987,0,0,0.04320987654320987,16.41975308641975,0)" xlink:href="#bl"/><use transform="matrix(0.04320987654320987,0,0,0.04320987654320987,29.3395061728395,0)" xlink:href="#bo"/><use transform="matrix(0.04320987654320987,0,0,0.04320987654320987,37.981481481481474,0)" xlink:href="#bk"/><use transform="matrix(0.04320987654320987,0,0,0.04320987654320987,46.62345679012345,0)" xlink:href="#bw"/><use transform="matrix(0.04320987654320987,0,0,0.04320987654320987,55.26543209876542,0)" xlink:href="#bo"/></g><g id="as"><use transform="matrix(0.04320987654320987,0,0,0.04320987654320987,0,0)" xlink:href="#bo"/><use transform="matrix(0.04320987654320987,0,0,0.04320987654320987,8.641975308641973,0)" xlink:href="#bn"/><use transform="matrix(0.04320987654320987,0,0,0.04320987654320987,12.055555555555554,0)" xlink:href="#bg"/><use transform="matrix(0.04320987654320987,0,0,0.04320987654320987,19.83333333333333,0)" xlink:href="#bo"/></g><path fill="#333" d="M198-261c85 0 136 45 136 128 0 61-22 111-78 115-29 2-39-18-37-44-12 23-32 44-66 44-41 0-58-28-58-68 0-60 30-105 88-108 29-1 43 15 54 32l7-28h28c-9 45-23 84-27 134-1 11 6 17 14 16 39-4 51-48 51-92 0-69-42-107-112-107-93 0-145 59-145 153C53-15 94 26 168 27c43 0 78-13 106-28l9 19c-30 18-67 32-115 32C79 50 28-1 28-86c0-107 62-175 170-175zM158-41c46 0 70-43 70-90 0-26-17-40-43-40-44 0-59 41-61 85-1 26 9 45 34 45" id="cc"/><use transform="matrix(0.04320987654320987,0,0,0.04320987654320987,0,0)" xlink:href="#cc" id="at"/><path fill="#333" d="M27 0v-27h64v-190l-56 39v-29l58-41h29v221h61V0H27" id="cd"/><use transform="matrix(0.11728395061728389,0,0,0.11728395061728389,0,0)" xlink:href="#cd" id="au"/><path fill="#333" d="M101-251c82-7 93 87 43 132L82-64C71-53 59-42 53-27h129V0H18c2-99 128-94 128-182 0-28-16-43-45-43s-46 15-49 41l-32-3c6-41 34-60 81-64" id="ce"/><use transform="matrix(0.11728395061728389,0,0,0.11728395061728389,0,0)" xlink:href="#ce" id="av"/><path fill="#333" d="M126-127c33 6 58 20 58 59 0 88-139 92-164 29-3-8-5-16-6-25l32-3c6 27 21 44 54 44 32 0 52-15 52-46 0-38-36-46-79-43v-28c39 1 72-4 72-42 0-27-17-43-46-43-28 0-47 15-49 41l-32-3c6-42 35-63 81-64 48-1 79 21 79 65 0 36-21 52-52 59" id="cf"/><use transform="matrix(0.11728395061728389,0,0,0.11728395061728389,0,0)" xlink:href="#cf" id="aw"/><path fill="#333" d="M155-56V0h-30v-56H8v-25l114-167h33v167h35v25h-35zm-30-156c-27 46-58 90-88 131h88v-131" id="cg"/><use transform="matrix(0.11728395061728389,0,0,0.11728395061728389,0,0)" xlink:href="#cg" id="ax"/><path fill="#333" d="M54-142c48-35 137-8 131 61C196 18 31 33 14-55l32-4c7 23 22 37 52 37 35-1 51-22 54-58 4-55-73-65-99-34H22l8-134h141v27H59" id="ch"/><use transform="matrix(0.11728395061728389,0,0,0.11728395061728389,0,0)" xlink:href="#ch" id="ay"/><path fill="#333" d="M110-160c48 1 74 30 74 79 0 53-28 85-80 85-65 0-83-55-86-122-5-90 50-162 133-122 14 7 22 21 27 39l-31 6c-5-40-67-38-82-6-9 19-15 44-15 74 11-20 30-34 60-33zm-7 138c34 0 49-23 49-58s-16-56-50-56c-29 0-50 16-49 49 1 36 15 65 50 65" id="ci"/><use transform="matrix(0.11728395061728389,0,0,0.11728395061728389,0,0)" xlink:href="#ci" id="az"/><path fill="#333" d="M64 0c3-98 48-159 88-221H18v-27h164v26C143-157 98-101 97 0H64" id="cj"/><use transform="matrix(0.11728395061728389,0,0,0.11728395061728389,0,0)" xlink:href="#cj" id="aA"/><path fill="#333" d="M134-131c28 9 52 24 51 62-1 50-34 73-85 73S17-19 16-69c0-36 21-54 49-61-75-25-45-126 34-121 46 3 78 18 79 63 0 33-17 51-44 57zm-34-11c31 1 46-15 46-44 0-28-17-43-47-42-29 0-46 13-45 42 1 28 16 44 46 44zm1 122c35 0 51-18 51-52 0-30-18-46-53-46-33 0-51 17-51 47 0 34 19 51 53 51" id="ck"/><use transform="matrix(0.11728395061728389,0,0,0.11728395061728389,0,0)" xlink:href="#ck" id="aB"/><path fill="#333" d="M99-251c64 0 84 50 84 122C183-37 130 33 47-8c-14-7-20-23-25-40l30-5c6 39 69 39 84 7 9-19 16-44 16-74-10 22-31 35-62 35-49 0-73-33-73-83 0-54 28-83 82-83zm-1 141c31-1 51-18 51-49 0-36-14-67-51-67-34 0-49 23-49 58 0 34 15 58 49 58" id="cl"/><use transform="matrix(0.11728395061728389,0,0,0.11728395061728389,0,0)" xlink:href="#cl" id="aC"/><path fill="#333" d="M101-251c68 0 85 55 85 127S166 4 100 4C33 4 14-52 14-124c0-73 17-127 87-127zm-1 229c47 0 54-49 54-102s-4-102-53-102c-51 0-55 48-55 102 0 53 5 102 54 102" id="cm"/><g id="aD"><use transform="matrix(0.11728395061728389,0,0,0.11728395061728389,0,0)" xlink:href="#cd"/><use transform="matrix(0.11728395061728389,0,0,0.11728395061728389,23.456790123456777,0)" xlink:href="#cm"/></g><g id="aE"><use transform="matrix(0.11728395061728389,0,0,0.11728395061728389,0,0)" xlink:href="#cd"/><use transform="matrix(0.11728395061728389,0,0,0.11728395061728389,20.290123456790113,0)" xlink:href="#cd"/></g><g id="aF"><use transform="matrix(0.11728395061728389,0,0,0.11728395061728389,0,0)" xlink:href="#cd"/><use transform="matrix(0.11728395061728389,0,0,0.11728395061728389,23.456790123456777,0)" xlink:href="#ce"/></g><g id="aG"><use transform="matrix(0.11728395061728389,0,0,0.11728395061728389,0,0)" xlink:href="#cd"/><use transform="matrix(0.11728395061728389,0,0,0.11728395061728389,23.456790123456777,0)" xlink:href="#cf"/></g><g id="aH"><use transform="matrix(0.11728395061728389,0,0,0.11728395061728389,0,0)" xlink:href="#cd"/><use transform="matrix(0.11728395061728389,0,0,0.11728395061728389,23.456790123456777,0)" xlink:href="#cg"/></g><g id="aI"><use transform="matrix(0.11728395061728389,0,0,0.11728395061728389,0,0)" xlink:href="#cd"/><use transform="matrix(0.11728395061728389,0,0,0.11728395061728389,23.456790123456777,0)" xlink:href="#ch"/></g><g id="aJ"><use transform="matrix(0.11728395061728389,0,0,0.11728395061728389,0,0)" xlink:href="#cd"/><use transform="matrix(0.11728395061728389,0,0,0.11728395061728389,23.456790123456777,0)" xlink:href="#ci"/></g><g id="aK"><use transform="matrix(0.11728395061728389,0,0,0.11728395061728389,0,0)" xlink:href="#cd"/><use transform="matrix(0.11728395061728389,0,0,0.11728395061728389,23.456790123456777,0)" xlink:href="#cj"/></g><g id="aL"><use transform="matrix(0.11728395061728389,0,0,0.11728395061728389,0,0)" xlink:href="#cd"/><use transform="matrix(0.11728395061728389,0,0,0.11728395061728389,23.456790123456777,0)" xlink:href="#ck"/></g><g id="aM"><use transform="matrix(0.11728395061728389,0,0,0.11728395061728389,0,0)" xlink:href="#cd"/><use transform="matrix(0.11728395061728389,0,0,0.11728395061728389,23.456790123456777,0)" xlink:href="#cl"/></g><g id="aN"><use transform="matrix(0.11728395061728389,0,0,0.11728395061728389,0,0)" xlink:href="#ce"/><use transform="matrix(0.11728395061728389,0,0,0.11728395061728389,23.456790123456777,0)" xlink:href="#cm"/></g><g id="aO"><use transform="matrix(0.11728395061728389,0,0,0.11728395061728389,0,0)" xlink:href="#ce"/><use transform="matrix(0.11728395061728389,0,0,0.11728395061728389,23.456790123456777,0)" xlink:href="#cd"/></g><g id="aP"><use transform="matrix(0.11728395061728389,0,0,0.11728395061728389,0,0)" xlink:href="#ce"/><use transform="matrix(0.11728395061728389,0,0,0.11728395061728389,23.456790123456777,0)" xlink:href="#ce"/></g><g id="aQ"><use transform="matrix(0.11728395061728389,0,0,0.11728395061728389,0,0)" xlink:href="#ce"/><use transform="matrix(0.11728395061728389,0,0,0.11728395061728389,23.456790123456777,0)" xlink:href="#cf"/></g><g id="aR"><use transform="matrix(0.11728395061728389,0,0,0.11728395061728389,0,0)" xlink:href="#ce"/><use transform="matrix(0.11728395061728389,0,0,0.11728395061728389,23.456790123456777,0)" xlink:href="#cg"/></g><g id="aS"><use transform="matrix(0.11728395061728389,0,0,0.11728395061728389,0,0)" xlink:href="#ce"/><use transform="matrix(0.11728395061728389,0,0,0.11728395061728389,23.456790123456777,0)" xlink:href="#ch"/></g><g id="aT"><use transform="matrix(0.11728395061728389,0,0,0.11728395061728389,0,0)" xlink:href="#ce"/><use transform="matrix(0.11728395061728389,0,0,0.11728395061728389,23.456790123456777,0)" xlink:href="#ci"/></g><g id="aU"><use transform="matrix(0.11728395061728389,0,0,0.11728395061728389,0,0)" xlink:href="#ce"/><use transform="matrix(0.11728395061728389,0,0,0.11728395061728389,23.456790123456777,0)" xlink:href="#cj"/></g><g id="aV"><use transform="matrix(0.11728395061728389,0,0,0.11728395061728389,0,0)" xlink:href="#ce"/><use transform="matrix(0.11728395061728389,0,0,0.11728395061728389,23.456790123456777,0)" xlink:href="#ck"/></g><g id="aW"><use transform="matrix(0.11728395061728389,0,0,0.11728395061728389,0,0)" xlink:href="#ce"/><use transform="matrix(0.11728395061728389,0,0,0.11728395061728389,23.456790123456777,0)" xlink:href="#cl"/></g><g id="aX"><use transform="matrix(0.11728395061728389,0,0,0.11728395061728389,0,0)" xlink:href="#cf"/><use transform="matrix(0.11728395061728389,0,0,0.11728395061728389,23.456790123456777,0)" xlink:href="#cm"/></g><g id="aY"><use transform="matrix(0.11728395061728389,0,0,0.11728395061728389,0,0)" xlink:href="#cf"/><use transform="matrix(0.11728395061728389,0,0,0.11728395061728389,23.456790123456777,0)" xlink:href="#cd"/></g></defs></g></svg>