<?xml version="1.0" encoding="UTF-8" standalone="no"?> <!-- Created with Vectornator for iOS (http://vectornator.io/) --><!DOCTYPE svg PUBLIC "-//W3C//DTD SVG 1.1//EN" "http://www.w3.org/Graphics/SVG/1.1/DTD/svg11.dtd">
<svg height="100%" style="fill-rule:evenodd;clip-rule:evenodd;stroke-linecap:round;stroke-linejoin:round;" xmlns:xlink="http://www.w3.org/1999/xlink" xmlns="http://www.w3.org/2000/svg" xml:space="preserve" width="100%" xmlns:vectornator="http://vectornator.io" version="1.1" viewBox="0 0 1404 1872">
<metadata>
<vectornator:setting key="Units" value="Points"/>
<vectornator:setting key="GuidesVisible" value="1"/>
<vectornator:setting key="RulersVisible" value="1"/>
<vectornator:setting key="SnapToGuides" value="1"/>
<vectornator:setting key="DynamicGuides" value="1"/>
</metadata>
<defs/>
<g id="Untitled" vectornator:layerName="Untitled">
<path stroke="#000000" stroke-width="2.66667" d="M1265.66+1848.04C643.631+1848.04+139.374+1343.6+139.374+721.352" fill="none" stroke-linecap="butt" opacity="1" stroke-linejoin="miter"/>
<path stroke="#000000" stroke-width="2.66667" d="M835.482+24.9977C451.032+24.9977+139.373+336.766+139.373+721.352" fill="none" stroke-linecap="butt" opacity="1" stroke-linejoin="miter"/>
<path stroke="#000000" stroke-width="2.66667" d="M1265.66+455.327C1265.66+217.662+1073.06+24.9964+835.483+24.9964" fill="none" stroke-linecap="butt" opacity="1" stroke-linejoin="miter"/>
<path stroke="#000000" stroke-width="2.66667" d="M999.733+721.351C1146.6+721.351+1265.66+602.248+1265.66+455.328" fill="none" stroke-linecap="butt" opacity="1" stroke-linejoin="miter"/>
<path stroke="#000000" stroke-width="2.66667" d="M999.734+721.349C909.021+721.349+835.484+647.786+835.484+557.042" fill="none" stroke-linecap="butt" opacity="1" stroke-linejoin="miter"/>
<path stroke="#000000" stroke-width="2.66667" d="M937.161+455.329C881.006+455.329+835.483+500.868+835.483+557.043" fill="none" stroke-linecap="butt" opacity="1" stroke-linejoin="miter"/>
<path stroke="#000000" stroke-width="2.66667" d="M937.16+455.328C971.717+455.328+999.731+483.352+999.731+517.921" fill="none" stroke-linecap="butt" opacity="1" stroke-linejoin="miter"/>
<path stroke="#000000" stroke-width="2.66667" d="M960.626+557.042C982.223+557.042+999.732+539.527+999.732+517.922" fill="none" stroke-linecap="butt" opacity="1" stroke-linejoin="miter"/>
<path stroke="#000000" stroke-width="2.66667" d="M960.627+557.041C947.668+557.041+937.163+546.532+937.163+533.569" fill="none" stroke-linecap="butt" opacity="1" stroke-linejoin="miter"/>
<path stroke="#000000" stroke-width="2.66667" d="M960.627+533.569L937.162+533.569" fill="none" stroke-linecap="butt" opacity="1" stroke-linejoin="miter"/>
<path stroke="#000000" stroke-width="2.66667" d="M960.626+517.922L960.626+557.043" fill="none" stroke-linecap="butt" opacity="1" stroke-linejoin="miter"/>
<path stroke="#000000" stroke-width="2.66667" d="M952.804+533.57L952.804+517.922" fill="none" stroke-linecap="butt" opacity="1" stroke-linejoin="miter"/>
<path stroke="#000000" stroke-width="2.66667" d="M952.805+525.745L960.627+525.745" fill="none" stroke-linecap="butt" opacity="1" stroke-linejoin="miter"/>
<path stroke="#000000" stroke-width="2.66667" d="M937.16+517.921L999.732+517.921" fill="none" stroke-linecap="butt" opacity="1" stroke-linejoin="miter"/>
<path stroke="#000000" stroke-width="2.66667" d="M937.161+557.043L937.161+455.328" fill="none" stroke-linecap="butt" opacity="1" stroke-linejoin="miter"/>
<path stroke="#000000" stroke-width="2.66667" d="M999.734+557.042L835.483+557.042" fill="none" stroke-linecap="butt" opacity="1" stroke-linejoin="miter"/>
<path stroke="#000000" stroke-width="2.66667" d="M999.733+455.328L999.733+721.352" fill="none" stroke-linecap="butt" opacity="1" stroke-linejoin="miter"/>
<path stroke="#000000" stroke-width="2.66667" d="M835.483+455.327L1265.66+455.327" fill="none" stroke-linecap="butt" opacity="1" stroke-linejoin="miter"/>
<path stroke="#000000" stroke-width="2.66667" d="M835.087+721.352L835.087+24.6011" fill="none" stroke-linecap="butt" opacity="1" stroke-linejoin="miter"/>
<path stroke="#000000" stroke-width="2.66667" d="M1265.66+721.351L139.373+721.351" fill="none" stroke-linecap="butt" opacity="1" stroke-linejoin="miter"/>
<path stroke="#000000" stroke-width="2.66667" d="M1265.66+1848.04L138.337+1848.04" fill="none" stroke-linecap="butt" opacity="1" stroke-linejoin="miter"/>
<path stroke="#000000" stroke-width="2.66667" d="M1264.63+24.9954L138.337+24.9954" fill="none" stroke-linecap="butt" opacity="1" stroke-linejoin="miter"/>
<path stroke="#000000" stroke-width="2.66667" d="M138.336+1848.04L138.336+23.9614" fill="none" stroke-linecap="butt" opacity="1" stroke-linejoin="miter"/>
<path stroke="#000000" stroke-width="2.66667" d="M1265.66+1848.04L1265.66+23.9614" fill="none" stroke-linecap="butt" opacity="1" stroke-linejoin="miter"/>
<path stroke="#000000" stroke-width="2.66667" d="M952.804+517.923C944.165+517.923+937.162+524.929+937.162+533.57" fill="none" stroke-linecap="butt" opacity="1" stroke-linejoin="miter"/>
<path stroke="#000000" stroke-width="2.66667" d="M952.805+517.922C957.124+517.922+960.626+521.425+960.626+525.745" fill="none" stroke-linecap="butt" opacity="1" stroke-linejoin="miter"/>
<path stroke="#000000" stroke-width="2.66667" d="M952.792+533.555C957.111+533.555+960.613+530.053+960.613+525.732" fill="none" stroke-linecap="butt" opacity="1" stroke-linejoin="miter"/>
</g>
</svg>
