<svg xmlns="http://www.w3.org/2000/svg" xmlns:lucid="lucid" width="1872" height="1404"><g lucid:page-tab-id="0_0"><path d="M0 0h1872v1404H0z" fill="#fff"/><path d="M20 420V106c0-3.3 2.7-6 6-6h154v320zM20 420h160v320H20zM20 740h160v320H20zM180 1380H26c-3.3 0-6-2.7-6-6v-314h160z" stroke="#5e5e5e" stroke-width="3" fill="#fff"/><path d="M180 100h1654c3.3 0 6 2.7 6 6v314H180zM180 420h1660v320H180zM180 740h1660v320H180zM1840 1060v314c0 3.3-2.7 6-6 6H180v-320z" stroke="#5e5e5e" stroke-width="3" fill="none"/></g></svg>